HIERARCHY
ROOT hip
{
	OFFSET 0.000000 0.000000 0.000000 
	CHANNELS 6 Xposition Yposition Zposition Xrotation Zrotation Yrotation
	JOINT abdomen
	{
		OFFSET 0.000000 3.402643 0.000000 
		CHANNELS 3 Xrotation Zrotation Yrotation
		JOINT chest
		{
			OFFSET 0.000000 8.438565 -0.680529 
			CHANNELS 3 Xrotation Zrotation Yrotation
			JOINT neck
			{
				OFFSET 0.000000 10.207942 -0.272212 
				CHANNELS 3 Xrotation Zrotation Yrotation
				JOINT head
				{
					OFFSET 0.000000 3.130431 0.000000 
					CHANNELS 3 Xrotation Zrotation Yrotation
					End Site
					{
						OFFSET 0.000000 3.130435 0.000000 
					}
				}
			}
			JOINT lCollar
			{
				OFFSET 3.470700 6.669187 -0.816635 
				CHANNELS 3 Yrotation Zrotation Xrotation
				JOINT lShldr
				{
					OFFSET 3.198488 0.000000 0.000000 
					CHANNELS 3 Zrotation Yrotation Xrotation
					JOINT lForeArm
					{
						OFFSET 10.139888 0.000000 0.000000 
						CHANNELS 3 Yrotation Zrotation Xrotation
						JOINT lHand
						{
							OFFSET 8.370511 0.000000 0.000000 
							CHANNELS 3 Zrotation Yrotation Xrotation
							End Site
							{
								OFFSET 4.083176 0.000000 0.000000 
							}
						}
					}
				}
			}
			JOINT rCollar
			{
				OFFSET -3.470700 6.669187 -0.816635 
				CHANNELS 3 Yrotation Zrotation Xrotation
				JOINT rShldr
				{
					OFFSET -3.198488 0.000000 0.000000 
					CHANNELS 3 Zrotation Yrotation Xrotation
					JOINT rForeArm
					{
						OFFSET -10.139888 0.000000 0.000000 
						CHANNELS 3 Yrotation Zrotation Xrotation
						JOINT rHand
						{
							OFFSET -8.370511 0.000000 0.000000 
							CHANNELS 3 Zrotation Yrotation Xrotation
							End Site
							{
								OFFSET -4.083176 0.000000 0.000000 
							}
						}
					}
				}
			}
		}
	}
	JOINT lThigh
	{
		OFFSET 5.308129 -1.633274 1.361059 
		CHANNELS 3 Xrotation Zrotation Yrotation
		JOINT lShin
		{
			OFFSET -2.041588 -20.007561 0.000000 
			CHANNELS 3 Xrotation Zrotation Yrotation
			JOINT lFoot
			{
				OFFSET 0.000000 -19.190928 -1.224953 
				CHANNELS 3 Xrotation Yrotation Zrotation
				End Site
				{
					OFFSET 0.000000 -2.449906 4.627600 
				}
			}
		}
	}
	JOINT rThigh
	{
		OFFSET -5.308129 -1.633274 1.361059 
		CHANNELS 3 Xrotation Zrotation Yrotation
		JOINT rShin
		{
			OFFSET 2.041588 -20.007561 0.000000 
			CHANNELS 3 Xrotation Zrotation Yrotation
			JOINT rFoot
			{
				OFFSET 0.000000 -19.190928 -1.224953 
				CHANNELS 3 Xrotation Yrotation Zrotation
				End Site
				{
					OFFSET 0.000000 -2.449906 4.627600 
				}
			}
		}
	}
}
MOTION
Frames: 20
Frame Time: 0.016667
39.365765 47.789989 122.321869 17.324219 6.210938 -110.566406 0.000000 0.000000 0.000000 -0.361328 -13.183595 -11.523437 -9.238281 1.396484 -14.657967 0.859375 3.828125 -28.994139 2.314453 -9.306641 2.677361 -11.406250 19.423828 5.976563 -97.822266 1.904297 6.464519 -35.371094 -7.802734 3.984375 -0.546875 10.078139 2.898677 12.695313 -10.683594 -45.773293 105.917969 0.751953 6.669793 -24.902346 16.542969 -38.603516 -19.285484 43.072044 4.437286 60.628632 0.600078 -5.464371 2.843077 -1.066067 3.350955 -13.316124 -3.162223 -11.683375 42.918510 1.914063 4.149486 31.684639 2.402900 1.696740 
39.590885 48.642361 121.186935 21.054686 6.396484 -106.347656 0.000000 0.000000 0.000000 0.175781 -10.722651 -11.495963 -8.310547 1.406250 -15.849370 2.441406 3.837891 -31.347000 0.888672 -8.837891 2.618688 -13.027344 17.646484 4.084993 -102.841797 1.640625 6.630580 -35.185547 -7.802735 2.908831 -2.880859 12.070312 3.037109 14.345702 -13.105468 -47.294918 106.787109 0.830078 6.855327 -25.351561 17.568359 -39.713848 -26.328041 42.626560 3.010135 67.120399 1.292182 -5.318326 3.677698 -0.389911 -0.133724 -14.327684 -0.526196 -9.215137 44.846687 1.940362 4.425375 39.022053 0.702887 12.576919 
39.758568 49.372074 120.201050 24.775391 6.542969 -102.987167 0.000000 0.000000 0.000000 0.351563 -7.910148 -11.505262 -7.568359 1.083984 -16.825987 3.681641 3.496094 -33.164063 -0.175781 -9.062500 2.626953 -16.015625 15.146485 4.296875 -107.822266 1.376953 6.601563 -32.539063 -7.236329 1.287833 -4.541016 14.277344 3.366732 17.041016 -14.824219 -47.443901 106.962891 0.839844 6.855325 -26.074221 17.685547 -40.800781 -30.339817 41.520203 4.011471 70.441124 1.624073 -5.574778 6.474852 -0.228442 -1.554764 -15.354701 0.868992 -7.614081 46.081863 1.781321 4.449100 44.811985 0.830253 21.593899 
39.873459 49.966717 119.370415 28.154297 6.669922 -100.487152 0.000000 0.000000 0.000000 0.000000 -4.580078 -11.611482 -7.197266 0.693359 -17.099607 4.736328 2.978516 -33.945316 -0.537109 -9.785172 2.716499 -20.000000 12.792969 7.306851 -111.357422 1.171875 6.503906 -28.330078 -5.566407 0.409209 -5.126953 16.181641 3.522669 20.410156 -15.136717 -46.582027 106.093750 0.761719 6.679543 -26.376953 17.138672 -41.686577 -31.617380 40.697338 6.983373 70.269585 1.292206 -5.783624 10.328946 -0.451825 -1.216790 -16.800734 0.869245 -7.044350 46.606548 1.865212 4.525583 47.340923 1.068977 26.384783 
39.941769 50.407650 118.684158 31.347658 6.757812 -99.422676 0.000000 0.000000 0.000000 -0.712891 -1.054688 -11.767576 -7.021484 0.000000 -17.011719 5.439453 1.572266 -33.837887 -0.175781 -10.996094 2.802734 -24.667967 11.289063 12.189412 -112.763672 1.093750 6.542782 -24.863279 -3.369141 1.181067 -4.980468 17.578125 3.766582 23.740232 -14.042968 -44.960938 104.501953 0.693359 6.835819 -25.966797 16.464844 -42.145672 -29.296824 39.384602 12.612739 66.746628 1.282087 -5.658247 14.043796 -1.252581 1.120607 -17.877815 -0.556660 -6.134840 46.094551 2.360074 4.344112 47.040691 1.315734 27.859915 
39.958855 50.680901 118.115936 33.837887 6.728516 -99.560547 0.000000 0.000000 0.000000 -1.943359 2.626953 -12.050333 -7.392579 -1.005859 -16.542967 5.439453 -0.175781 -32.871090 0.722656 -12.187499 2.990343 -29.365234 11.679688 17.609961 -111.884766 1.201172 6.532999 -23.339842 -1.210938 3.876747 -4.267578 18.320311 3.779297 26.328123 -11.904297 -43.066406 103.105469 0.595703 6.826070 -25.224607 16.171875 -42.301968 -25.114750 38.165428 18.376116 61.332340 0.775760 -5.056841 15.538030 -3.261384 5.685301 -18.401752 -2.987383 -4.703248 43.616230 2.106294 4.236448 43.874012 1.179067 26.719685 
39.918484 50.781818 117.609779 35.966797 6.699219 -100.625000 0.000000 0.000000 0.000000 -3.183594 6.318359 -11.953124 -7.949219 -2.119141 -15.683593 5.087890 -2.460938 -31.328125 1.445312 -13.378908 3.173828 -33.974606 14.355468 21.662579 -109.414063 1.289063 6.640625 -23.779297 1.757813 7.949521 -3.339844 18.349609 3.798828 28.007814 -9.785157 -40.655956 102.753906 0.585938 6.816406 -24.365234 16.416016 -42.109375 -18.994389 36.208862 23.937077 53.459484 -0.083909 -4.985761 14.615110 -4.681946 11.085724 -18.401306 -6.325764 -2.988982 38.318268 2.617090 3.922937 39.739388 0.751433 23.326393 
39.829987 50.729034 117.085014 37.724609 6.542969 -101.825058 0.000000 0.000000 0.000000 -4.111328 9.814453 -11.416016 -8.691406 -3.417969 -14.785157 4.375000 -4.736328 -29.903149 1.806641 -13.886719 3.273828 -37.792969 18.623047 23.662111 -106.757813 1.464844 6.396235 -25.283201 5.585938 12.286106 -2.402344 17.705080 3.668905 28.984375 -8.046876 -37.491600 104.160156 0.644531 6.660046 -23.759766 17.695311 -41.611328 -13.027811 34.032867 27.199144 45.032089 -0.980973 -4.419621 11.603030 -6.251400 16.483738 -17.553913 -9.851032 -1.270820 30.378794 2.968548 2.955502 38.896885 0.967501 19.238640 
39.727512 50.589302 116.443787 39.121098 6.289063 -102.655174 0.000000 0.000000 0.000000 -4.687500 12.431641 -10.488280 -9.414063 -4.228516 -14.277342 3.300781 -6.308594 -28.974611 1.992187 -13.701172 3.300781 -40.273438 23.642574 23.681641 -104.267578 1.582031 6.503637 -26.962891 9.941406 15.390624 -2.031250 16.835938 3.720703 29.248045 -6.845704 -33.798832 107.314453 0.849609 6.855468 -23.203125 19.501953 -40.351563 -7.256257 32.099937 28.146774 36.798775 -1.464529 -3.647295 6.415984 -7.693248 20.277567 -16.469603 -14.009501 -0.425260 22.372923 3.300547 2.315072 40.859707 1.193649 16.119066 
39.670074 50.482174 115.622475 40.849609 5.722657 -103.163086 0.000000 0.000000 0.000000 -4.531250 14.013672 -8.982010 -9.951173 -4.394531 -14.228515 2.236328 -6.650391 -28.995270 2.343750 -13.154298 3.195581 -40.097656 28.408203 22.597656 -102.490234 1.679687 6.454792 -27.880859 12.021484 16.689453 -2.021484 15.966799 3.512939 28.632813 -5.839844 -29.707029 111.005859 1.074219 6.689270 -21.601563 21.562500 -37.890625 -2.900900 31.660334 26.857784 30.459812 -1.795966 -3.210015 2.023311 -7.947413 22.820511 -15.985677 -17.577295 -0.365345 18.052399 3.612370 2.053766 43.785145 1.265733 14.298612 
39.698021 50.536514 114.635025 43.105469 5.136719 -102.597656 0.000000 0.000000 0.000000 -4.375000 15.244141 -7.441405 -10.097657 -4.296875 -14.775573 1.884766 -6.289063 -30.048826 3.242188 -12.939453 3.205312 -36.669922 32.041016 20.810547 -101.240234 1.738281 6.405954 -28.369139 10.957031 16.027248 -2.558594 15.585937 3.466797 27.138670 -5.380859 -25.419920 114.511719 1.298828 6.689232 -18.681641 23.017576 -34.863285 0.673604 33.730694 24.830133 26.583502 -2.137238 -2.540189 -1.330368 -8.636653 23.899012 -16.313000 -20.169230 0.253733 18.405487 3.671348 1.911900 45.018707 1.210552 13.578504 
39.797379 50.815979 113.518707 45.878910 4.531250 -100.790245 0.000000 0.000000 0.000000 -4.394532 15.947266 -5.908203 -9.707031 -3.730469 -15.771484 2.080078 -5.068360 -31.963753 4.501954 -12.724610 3.107620 -30.263670 33.105465 18.765097 -100.166016 1.787109 6.366883 -29.316404 7.070312 13.673078 -3.662110 15.722656 3.408203 24.609375 -5.820313 -20.927732 116.621094 1.386719 6.689217 -15.175780 23.984377 -31.724545 2.770142 37.563721 23.625658 23.568081 -2.109155 -2.376817 -3.557598 -8.356880 23.047602 -16.794714 -21.852577 0.631563 23.620214 3.310033 2.237664 44.641098 1.380114 13.602258 
39.923141 51.317463 112.303055 49.179688 3.681641 -97.528664 0.000000 0.000000 0.000000 -4.394532 15.947266 -4.677733 -9.111328 -2.890625 -17.354006 2.968750 -3.505860 -34.824814 5.742188 -11.972656 3.134766 -22.880859 31.347654 15.600784 -99.443359 1.845703 6.523438 -30.078125 1.953125 10.928068 -4.960938 16.533201 3.681641 21.738281 -7.304688 -16.572266 117.148438 1.406250 6.689213 -11.289063 24.785158 -29.800591 3.415892 42.752075 22.861734 20.921200 -2.274610 -2.065650 -3.928320 -7.195586 20.260735 -17.163229 -23.118935 0.430985 32.692543 2.626665 3.194764 43.655918 1.138927 14.790860 
40.042694 51.978867 111.020615 52.275391 2.578125 -92.987839 0.000000 0.000000 0.000000 -4.746094 15.234375 -4.020871 -8.339843 -1.875000 -18.926100 3.857422 -1.582031 -37.851833 6.074219 -10.400392 2.861328 -16.230471 26.552736 10.996094 -98.906250 1.884766 6.327804 -30.517578 -2.451172 8.681640 -6.464844 17.714844 3.678669 19.062500 -10.351563 -11.894529 115.390625 1.337891 6.689453 -7.255858 26.113279 -28.735935 1.345138 48.639599 22.033213 18.769569 -2.440784 -1.962844 -2.924827 -5.225963 16.300234 -16.843075 -24.019581 -1.327838 44.145840 1.738120 4.139141 43.163361 1.123669 15.475658 
40.166897 52.705471 109.735085 55.390625 1.396484 -87.099609 0.000000 0.000000 0.000000 -5.078125 14.003907 -3.486328 -7.724609 -1.044922 -20.634945 4.208984 0.000000 -40.966797 5.507813 -8.310547 2.744141 -10.888672 19.951174 5.126953 -98.544922 1.865234 6.494104 -29.755859 -5.253906 7.381919 -8.007813 19.082031 3.828125 16.914064 -14.443360 -7.072748 111.884766 1.103516 6.699032 -3.066406 28.134768 -28.525391 -4.631921 54.037277 19.651072 17.196880 -2.264946 -1.844341 -0.530804 -3.874537 11.503565 -15.760112 -25.045732 -4.236869 55.712650 0.556638 5.330981 44.070068 1.041844 15.748610 
40.326813 53.385506 108.506981 58.183594 0.361328 -80.790939 0.000000 0.000000 0.000000 -5.595703 12.939453 -3.164063 -7.490234 -0.488281 -21.757895 4.033203 0.693359 -43.300785 3.710938 -6.103516 2.333985 -6.855469 12.255859 -1.042849 -98.544922 1.865234 6.494104 -27.783205 -6.259766 7.402343 -9.365234 19.941908 3.893148 15.273437 -18.867188 -1.689453 106.445313 0.771484 6.679541 0.429688 29.931641 -28.681641 -15.323274 57.943707 13.438460 16.663927 -2.274449 -1.814516 3.015226 -2.737843 8.343766 -13.874993 -26.820271 -7.102124 66.424240 -0.546771 5.770139 46.760216 0.842014 15.765376 
40.539516 53.933563 107.364288 60.820313 -0.517578 -74.755951 0.000000 0.000000 0.000000 -5.761718 12.236328 -2.605352 -7.802735 -0.761719 -22.441408 3.505859 0.517578 -44.521393 1.582031 -4.423807 2.237091 -3.388672 4.179688 -7.225849 -98.906250 1.884766 6.327804 -25.488281 -6.201172 8.251953 -9.941406 20.283203 3.951693 14.511719 -23.085938 3.789063 99.414063 0.380859 6.787101 2.539063 30.927734 -28.735218 -28.260410 59.254452 5.288005 16.637154 -2.470734 -1.837821 7.213369 -2.731963 7.432397 -11.776722 -28.911846 -9.712280 75.006592 -1.591607 6.095214 50.150909 0.783556 15.878354 
40.800350 54.299976 106.319397 62.949215 -1.201172 -69.677734 0.000000 0.000000 0.000000 -5.937500 12.236327 -2.119140 -8.505859 -1.289063 -22.402565 2.626953 -0.351563 -44.794983 0.351562 -3.769531 2.138672 0.371094 -4.453120 -12.998790 -99.082031 1.855469 6.513355 -23.564451 -5.439453 9.520560 -9.746095 20.117188 3.867188 14.277343 -26.425777 9.072265 91.328125 -0.078125 6.640638 2.412109 30.214844 -29.272429 -39.832897 58.767773 -1.219661 17.528728 -2.471084 -2.057201 10.380631 -3.042889 7.525812 -9.687050 -31.851791 -10.267050 81.312187 -2.313853 6.082973 54.279263 0.841861 16.392302 
41.099998 54.466099 105.372330 65.097649 -1.855469 -66.044922 0.000000 0.000000 0.000000 -5.781250 13.291017 -1.298828 -9.404297 -2.138672 -22.109377 1.572266 -1.748047 -44.092098 0.175781 -3.955076 2.129581 4.775391 -13.457031 -18.361647 -99.443359 1.845703 6.523438 -22.177734 -4.521484 10.467981 -9.140625 19.404297 3.867188 14.560546 -28.505859 14.238281 82.597656 -0.556641 6.416026 0.195313 28.154282 -29.673111 -48.271252 57.577797 -4.965048 18.404911 -2.470705 -2.129793 12.718604 -3.371958 8.348968 -7.920144 -35.181309 -9.033714 84.818069 -2.651883 6.062376 57.393894 0.656705 17.617758 
41.426044 54.441261 104.513741 67.080078 -2.343750 -63.516026 0.000000 0.000000 0.000000 -5.654297 15.214844 -0.605469 -10.312500 -3.105469 -21.416544 0.332031 -3.134763 -43.154858 1.406250 -5.136719 2.246968 9.599608 -23.007811 -23.417969 -99.628906 1.826172 6.357388 -22.041016 -3.457031 11.337304 -8.154297 18.369141 3.785985 15.205078 -29.179688 18.774536 73.105469 -1.074219 6.259767 -3.056641 25.673828 -30.214844 -53.622139 56.805683 -6.278241 19.117603 -2.441436 -2.158947 13.454239 -3.808389 9.132872 -7.216567 -39.151775 -6.393856 85.511017 -2.811904 5.918109 59.404648 0.779894 18.549358 
